PathFileType	4	(X/Y/Z)	../Python\walking\Walking20\task.trc
DataRate	CameraRate	NumFrames	NumMarkers	Units	OrigDataRate	OrigDataStartFrame	OrigNumFrames
200.000000	200.000000	4	30	mm	200.000000	242	485
Frame#	Time	CLAV			STRN			RASI			LASI			PE01			RTH1			RTH2			RTH3			RTB1			RHEE			RD5M			RTOE			LTH2			LTH3			LTB1			LTB2			LTB3			LHEE			LTOE			LD5M			RTB3			RBAK			RTB2			C7			RPSI			LPSI			PE03			PE02			LTH1			T10			
		X1	Y1	Z1	X2	Y2	Z2	X3	Y3	Z3	X4	Y4	Z4	X5	Y5	Z5	X6	Y6	Z6	X7	Y7	Z7	X8	Y8	Z8	X9	Y9	Z9	X10	Y10	Z10	X11	Y11	Z11	X12	Y12	Z12	X13	Y13	Z13	X14	Y14	Z14	X15	Y15	Z15	X16	Y16	Z16	X17	Y17	Z17	X18	Y18	Z18	X19	Y19	Z19	X20	Y20	Z20	X21	Y21	Z21	X22	Y22	Z22	X23	Y23	Z23	X24	Y24	Z24	X25	Y25	Z25	X26	Y26	Z26	X27	Y27	Z27	X28	Y28	Z28	X29	Y29	Z29	X30	Y30	Z30	

243	1.21	114.6455383300782	1224.706909179688	192.7971954345704	178.7739410400391	1039.057983398438	190.8349761962891	153.6549072265626	852.1349487304692	306.7633666992189	146.738510131836	832.745483398438	78.10461425781253	-43.40413665771486	917.8432006835942	210.8214263916017	186.822006225586	571.3460693359377	342.2745971679689	233.412322998047	510.2265319824221	320.7192687988282	236.6959991455079	571.7050781250002	329.6609497070314	305.2346801757814	300.460662841797	300.828094482422	252.4396209716798	25.84177207946779	234.4632720947267	405.5278930664065	17.85405921936036	290.4123840332032	435.401306152344	38.65962219238283	238.8048553466798	-29.9359645843506	537.035339355469	72.52993774414065	49.34320831298831	549.3301391601565	65.29779052734378	-171.5311279296876	311.7449645996095	86.18912506103518	-220.5664520263673	252.1961517333986	99.95502471923834	-171.0207672119141	252.3564910888673	101.8453521728516	-347.5790405273439	124.4786605834962	160.6792144775391	-194.0794982910157	27.30961799621583	180.7876586914063	-236.9651336669923	16.46225357055665	131.4722595214844	307.7217102050782	222.5226898193361	294.6884765625001	-59.54307937622073	1212.01318359375	288.405242919922	272.1699218750001	251.8793945312501	313.0447692871095	-14.39443111419678	1314.641967773438	194.0469970703126	-47.70336151123048	881.7157592773442	255.6088104248048	-50.92462158203128	881.4892578125005	169.1010894775391	-62.13470458984378	857.0244750976567	188.7652130126954	-58.68484878540042	859.684692382813	239.2795562744142	11.63793087005616	581.675720214844	56.32868194580081	-32.59753036499025	1017.011535644532	191.6671600341797	
244	1.215	121.8751754760743	1225.45361328125	192.8553466796876	186.2323150634766	1039.851684570313	190.7835693359376	161.2014617919922	853.2687377929692	307.0144348144532	154.0048217773438	832.7929077148442	78.56668853759768	-36.28948974609376	918.6043090820317	210.5271301269532	194.2324676513673	572.4185791015627	342.8919677734376	240.5390625000001	511.2030029296877	321.0675048828126	244.0285034179689	572.6843261718752	329.8203430175782	309.8463745117189	300.2233276367189	300.586151123047	252.9294281005861	26.5037136077881	234.7911987304689	406.2176208496096	16.68309402465821	290.9138793945314	436.6357421875002	36.91428756713869	238.8422393798829	-20.86215972900391	536.292419433594	72.74727630615237	58.24563217163089	549.1091308593752	64.96382141113284	-163.6864929199219	313.7026672363282	86.31684875488284	-213.6659545898439	254.9823608398439	100.273910522461	-164.1013946533204	254.0827484130861	101.4415359497071	-341.7249755859376	130.3726654052735	161.3568420410157	-194.3775634765626	27.09223365783693	180.7165527343751	-236.8154296875001	17.35581016540528	132.0163269042969	311.3878479003907	222.3238830566407	294.4892883300782	-51.96657180786136	1212.528442382813	288.9588317871095	276.495330810547	252.1573486328126	313.3598022460939	-7.207744598388675	1315.239135742188	194.4440307617189	-40.15415573120119	882.809204101563	255.7590332031251	-43.45321273803712	882.0224609375005	169.0074462890626	-54.63171386718753	857.539672851563	188.8258056640626	-51.24922943115237	860.5347290039067	239.3271484375001	20.26551246643067	581.183044433594	56.444206237793	-25.146297454834	1017.631469726563	191.7864074707032	
245	1.22	129.0862121582032	1226.288452148438	192.8772735595704	193.665008544922	1040.727416992188	190.6941986083985	168.7051849365235	854.4628906250005	307.2603759765626	161.2299957275391	832.932739257813	79.04203796386722	-29.20798873901369	919.441284179688	210.2404022216798	201.3415374755861	573.4359130859377	343.5162048339845	247.4047393798829	512.1450805664065	321.4432373046876	251.0692291259767	573.591003417969	330.0877380371095	314.2023925781251	299.9827880859376	300.409881591797	253.3666381835939	27.0802459716797	235.0701904296876	406.786804199219	15.82315349578858	291.4255981445314	437.726257324219	35.49180603027345	238.9033050537111	-11.5226001739502	535.4996337890627	72.88287353515628	67.40724182128909	548.9211425781252	64.53945159912112	-155.3709564208985	315.671112060547	86.40643310546878	-206.2798309326173	257.7792053222657	100.565299987793	-156.7236022949219	255.8237152099611	100.9614715576172	-335.2561645507814	136.3989715576172	162.0384063720704	-194.6024169921876	26.93515014648439	180.691390991211	-236.3417816162111	18.50712394714356	132.5646514892579	314.8105468750001	222.1255950927736	294.3284912109376	-44.37658309936525	1213.140258789063	289.5245361328126	280.5495910644532	252.4103393554689	313.6853332519532	-0.0318933129310608	1315.919311523438	194.8289031982423	-32.63547897338869	883.9876098632817	255.9232330322267	-36.01530075073244	882.632202148438	168.9249877929688	-47.16181564331056	858.1365356445317	188.8886108398438	-43.85581970214845	861.4644165039067	239.3762969970704	29.103084564209	580.695739746094	56.50295639038089	-17.71730613708497	1018.339477539063	191.9288940429688	
246	1.225	136.2760467529297	1227.205810546875	192.8614196777345	201.0664062500001	1041.678833007813	190.5644683837891	176.1609649658204	855.7066040039067	307.4988708496095	168.4073791503907	833.1633300781255	79.52557373046878	-22.1616439819336	920.3504028320317	209.967742919922	208.1501464843751	574.3948974609377	344.136688232422	253.9957275390626	513.035095214844	321.8376770019532	257.8189697265626	574.412780761719	330.4388122558595	318.2887573242189	299.731170654297	300.3076782226564	253.7445526123048	27.5622901916504	235.2961883544923	407.2378540039065	15.23596668243409	291.9155883789064	438.670837402344	34.36435317993165	238.9641876220704	-1.929738521575929	534.657897949219	72.92900848388675	76.81563568115237	548.7644042968752	64.0369567871094	-146.5676727294922	317.623260498047	86.449577331543	-198.3904876708986	260.5586547851564	100.8180541992188	-148.8710479736329	257.5638122558595	100.4120559692383	-328.174530029297	142.5135803222657	162.7023468017579	-194.6508026123048	26.87820053100587	180.7012786865235	-235.4509277343751	19.93991088867188	133.0956420898438	317.9739685058595	221.9160003662111	294.2133178710939	-36.77568435668947	1213.84619140625	290.101531982422	284.303436279297	252.6265258789064	314.0083312988282	7.131378173828129	1316.679077148438	195.2005004882814	-25.15358924865724	885.2446289062505	256.1040344238282	-28.61817359924318	883.3158569335942	168.8594818115235	-39.73242950439455	858.8134155273442	188.9584655761719	-36.50960159301759	862.4695434570317	239.4319000244142	38.1409378051758	580.214782714844	56.50275802612308	-10.3154525756836	1019.1318359375	192.096893310547	
